
<svg width="24" height="24" viewBox="0 0 24 24" fill="none" xmlns="http://www.w3.org/2000/svg">
<path d="M21.8906 11.9997V19.4997C21.8881 20.4935 21.4923 21.4459 20.7895 22.1487C20.0868 22.8514 19.1344 23.2473 18.1406 23.2497H12.75C12.5511 23.2497 12.3603 23.1707 12.2197 23.0301C12.079 22.8894 12 22.6986 12 22.4997C12 22.3008 12.079 22.1101 12.2197 21.9694C12.3603 21.8288 12.5511 21.7497 12.75 21.7497H18.1406C18.7366 21.7473 19.3075 21.5094 19.7289 21.088C20.1503 20.6666 20.3882 20.0957 20.3906 19.4997V19.3685C20.1501 19.4552 19.8963 19.4997 19.6406 19.4997H18.1406C17.5439 19.4997 16.9716 19.2627 16.5496 18.8407C16.1277 18.4188 15.8906 17.8465 15.8906 17.2497V13.4997C15.8906 12.903 16.1277 12.3307 16.5496 11.9087C16.9716 11.4868 17.5439 11.2497 18.1406 11.2497H20.3531C20.1651 9.18931 19.2097 7.27476 17.6765 5.8856C16.1432 4.49645 14.1439 3.73412 12.075 3.74973H12.0656C9.99548 3.72977 7.99383 4.4906 6.45962 5.8806C4.92542 7.2706 3.97132 9.18767 3.7875 11.2497H6C6.59598 11.2522 7.16684 11.49 7.58826 11.9115C8.00969 12.3329 8.24753 12.9038 8.25 13.4997V17.2497C8.24753 17.8457 8.00969 18.4166 7.58826 18.838C7.16684 19.2594 6.59598 19.4973 6 19.4997H4.5C3.90402 19.4973 3.33316 19.2594 2.91174 18.838C2.49031 18.4166 2.25247 17.8457 2.25 17.2497V11.9997C2.24997 10.7138 2.50432 9.44057 2.9984 8.25335C3.49248 7.06613 4.21654 5.98837 5.12887 5.08214C6.04121 4.1759 7.1238 3.45909 8.31431 2.97299C9.50481 2.48688 10.7797 2.24108 12.0656 2.24973H12.1406C14.7257 2.25221 17.2042 3.28024 19.0322 5.10818C20.8601 6.93612 21.8881 9.41463 21.8906 11.9997Z" fill="#333333"/>
</svg>
