<svg width="25" height="24" viewBox="0 0 25 24" fill="none" xmlns="http://www.w3.org/2000/svg">
<path d="M21.25 6.375C21.25 9.067 17.22 11.25 12.25 11.25C7.28 11.25 3.25 9.067 3.25 6.375C3.25 3.683 7.28 1.5 12.25 1.5C17.22 1.5 21.25 3.683 21.25 6.375Z" fill="#9CC29B"/>
<path d="M12.25 12.7508C14.935 12.7508 17.44 12.1648 19.328 11.1418C20.0228 10.7729 20.6616 10.3069 21.225 9.75781C21.241 9.87881 21.25 10.0018 21.25 10.1258C21.25 12.8178 17.22 15.0008 12.25 15.0008C7.28 15.0008 3.25 12.8178 3.25 10.1258C3.25 10.0018 3.259 9.87881 3.275 9.75781C3.83842 10.3069 4.47716 10.7729 5.172 11.1418C7.059 12.1648 9.565 12.7508 12.25 12.7508Z" fill="#9CC29B"/>
<path d="M12.25 16.5008C14.935 16.5008 17.44 15.9148 19.328 14.8918C20.0229 14.5229 20.6616 14.0569 21.225 13.5078C21.241 13.6288 21.25 13.7518 21.25 13.8758C21.25 16.5678 17.22 18.7508 12.25 18.7508C7.28 18.7508 3.25 16.5678 3.25 13.8758C3.25 13.7518 3.259 13.6288 3.275 13.5078C3.83841 14.0569 4.47716 14.5229 5.172 14.8918C7.059 15.9148 9.565 16.5008 12.25 16.5008Z" fill="#9CC29B"/>
<path d="M12.25 20.2508C14.935 20.2508 17.44 19.6648 19.328 18.6418C20.0229 18.2729 20.6616 17.8069 21.225 17.2578C21.241 17.3788 21.25 17.5018 21.25 17.6258C21.25 20.3178 17.22 22.5008 12.25 22.5008C7.28 22.5008 3.25 20.3178 3.25 17.6258C3.25 17.5018 3.259 17.3788 3.275 17.2578C3.83841 17.8069 4.47716 18.2729 5.172 18.6418C7.059 19.6648 9.565 20.2508 12.25 20.2508Z" fill="#9CC29B"/>
</svg>
