<svg width="25" height="24" viewBox="0 0 25 24" fill="none" xmlns="http://www.w3.org/2000/svg">
<g clip-path="url(#clip0_1074_82922)">
<path d="M3.53875 14.7805L3.44875 14.6905C3.05875 14.3005 3.05875 13.6705 3.44875 13.2805L9.53875 7.18052C9.92875 6.79052 10.5587 6.79052 10.9487 7.18052L14.2387 10.4705L20.6287 3.29052C21.0087 2.86052 21.6788 2.85052 22.0788 3.25052C22.4488 3.63052 22.4688 4.23052 22.1188 4.62052L14.9487 12.6905C14.5687 13.1205 13.9087 13.1405 13.4987 12.7305L10.2487 9.48052L4.94875 14.7805C4.56875 15.1705 3.92875 15.1705 3.53875 14.7805ZM4.94875 20.7805L10.2487 15.4805L13.4987 18.7305C13.9087 19.1405 14.5687 19.1205 14.9487 18.6905L22.1188 10.6205C22.4688 10.2305 22.4488 9.63052 22.0788 9.25052C21.6788 8.85052 21.0087 8.86052 20.6287 9.29052L14.2387 16.4705L10.9487 13.1805C10.5587 12.7905 9.92875 12.7905 9.53875 13.1805L3.44875 19.2805C3.05875 19.6705 3.05875 20.3005 3.44875 20.6905L3.53875 20.7805C3.92875 21.1705 4.56875 21.1705 4.94875 20.7805Z" fill="#9CC29B"/>
</g>
<defs>
<clipPath id="clip0_1074_82922">
<rect width="24" height="24" fill="white" transform="translate(0.75)"/>
</clipPath>
</defs>
</svg>
